<svg width="27" height="25" viewBox="0 0 27 25" fill="none" xmlns="http://www.w3.org/2000/svg">
<path fill-rule="evenodd" clip-rule="evenodd" d="M0 2.77778C0 1.24365 1.20883 0 2.7 0H24.3C25.7912 0 27 1.24365 27 2.77778V5.55556C27 6.59316 26.447 7.49788 25.6277 7.97483C25.6424 8.09219 25.65 8.21185 25.65 8.33333V22.2222C25.65 23.7563 24.4412 25 22.95 25H4.05C2.55883 25 1.35 23.7563 1.35 22.2222V8.33333C1.35 8.21185 1.35758 8.09219 1.37228 7.97483C0.552977 7.49789 0 6.59316 0 5.55556V2.77778ZM24.3 5.55556V2.77778H2.7V5.55556H24.3ZM4.05 8.33333V22.2222H22.95V8.33333H4.05ZM8.1 12.5C8.1 11.7329 8.70442 11.1111 9.45 11.1111H17.55C18.2956 11.1111 18.9 11.7329 18.9 12.5C18.9 13.2671 18.2956 13.8889 17.55 13.8889H9.45C8.70442 13.8889 8.1 13.2671 8.1 12.5Z" fill="#E8E8E8"/>
</svg>
