<svg width="25" height="20" viewBox="0 0 25 20" fill="none" xmlns="http://www.w3.org/2000/svg">
<path fill-rule="evenodd" clip-rule="evenodd" d="M0 1.66667C0 0.746192 0.699555 0 1.5625 0H23.4375C24.3004 0 25 0.746192 25 1.66667C25 2.58714 24.3004 3.33333 23.4375 3.33333H1.5625C0.699555 3.33333 0 2.58714 0 1.66667ZM0 10C0 9.07953 0.699555 8.33333 1.5625 8.33333H23.4375C24.3004 8.33333 25 9.07953 25 10C25 10.9205 24.3004 11.6667 23.4375 11.6667H1.5625C0.699555 11.6667 0 10.9205 0 10ZM0 18.3333C0 17.4129 0.699555 16.6667 1.5625 16.6667H23.4375C24.3004 16.6667 25 17.4129 25 18.3333C25 19.2538 24.3004 20 23.4375 20H1.5625C0.699555 20 0 19.2538 0 18.3333Z" fill="#E8E8E8"/>
</svg>
