<svg width="23" height="23" viewBox="0 0 23 23" fill="none" xmlns="http://www.w3.org/2000/svg">
<path fill-rule="evenodd" clip-rule="evenodd" d="M9.2 2.3C5.38924 2.3 2.3 5.38924 2.3 9.2C2.3 13.0108 5.38924 16.1 9.2 16.1C13.0108 16.1 16.1 13.0108 16.1 9.2C16.1 5.38924 13.0108 2.3 9.2 2.3ZM0 9.2C0 4.11898 4.11898 0 9.2 0C14.281 0 18.4 4.11898 18.4 9.2C18.4 11.326 17.6789 13.2836 16.4678 14.8415L22.6632 21.0368C23.1123 21.4859 23.1123 22.2141 22.6632 22.6632C22.2141 23.1123 21.4859 23.1123 21.0368 22.6632L14.8415 16.4678C13.2836 17.6789 11.326 18.4 9.2 18.4C4.11898 18.4 0 14.281 0 9.2Z" fill="#E8E8E8"/>
</svg>
